<svg width="44" height="49" viewBox="0 0 44 49" fill="none" xmlns="http://www.w3.org/2000/svg">
<path d="M22 30.75V35.75M9.5 19.572C10.6785 19.5 12.1315 19.5 14 19.5H30C31.8685 19.5 33.3215 19.5 34.5 19.572M9.5 19.572C8.0292 19.6618 6.98573 19.8637 6.09508 20.3175C4.68385 21.0365 3.5365 22.1837 2.81745 23.595C2 25.1995 2 27.2995 2 31.5V35C2 39.2005 2 41.3005 2.81745 42.905C3.5365 44.3162 4.68385 45.4635 6.09508 46.1825C7.6994 47 9.7996 47 14 47H30C34.2005 47 36.3005 47 37.905 46.1825C39.3162 45.4635 40.4635 44.3162 41.1825 42.905C42 41.3005 42 39.2005 42 35V31.5C42 27.2995 42 25.1995 41.1825 23.595C40.4635 22.1837 39.3162 21.0365 37.905 20.3175C37.0142 19.8637 35.9707 19.6618 34.5 19.572M9.5 19.572V14.5C9.5 7.59645 15.0964 2 22 2C28.9035 2 34.5 7.59645 34.5 14.5V19.572" stroke="black" stroke-width="3" stroke-linecap="round" stroke-linejoin="round"/>
</svg>
